<svg id="visual" viewBox="0 0 1920 1080" width="1920" height="1080" xmlns="http://www.w3.org/2000/svg" xmlns:xlink="http://www.w3.org/1999/xlink" version="1.1"><rect x="0" y="0" width="1920" height="1080" fill="#1A1A2E"></rect><path d="M0 731L29.2 742.5C58.3 754 116.7 777 174.8 778.5C233 780 291 760 349.2 763.7C407.3 767.3 465.7 794.7 523.8 814C582 833.3 640 844.7 698.2 857.3C756.3 870 814.7 884 872.8 862.3C931 840.7 989 783.3 1047.2 778.5C1105.3 773.7 1163.7 821.3 1221.8 822C1280 822.7 1338 776.3 1396.2 746.8C1454.3 717.3 1512.7 704.7 1570.8 703.2C1629 701.7 1687 711.3 1745.2 733.5C1803.3 755.7 1861.7 790.3 1890.8 807.7L1920 825L1920 1081L1890.8 1081C1861.7 1081 1803.3 1081 1745.2 1081C1687 1081 1629 1081 1570.8 1081C1512.7 1081 1454.3 1081 1396.2 1081C1338 1081 1280 1081 1221.8 1081C1163.7 1081 1105.3 1081 1047.2 1081C989 1081 931 1081 872.8 1081C814.7 1081 756.3 1081 698.2 1081C640 1081 582 1081 523.8 1081C465.7 1081 407.3 1081 349.2 1081C291 1081 233 1081 174.8 1081C116.7 1081 58.3 1081 29.2 1081L0 1081Z" fill="#9ab3f5"></path><path d="M0 771L29.2 803.2C58.3 835.3 116.7 899.7 174.8 916.3C233 933 291 902 349.2 898.2C407.3 894.3 465.7 917.7 523.8 906.2C582 894.7 640 848.3 698.2 846.5C756.3 844.7 814.7 887.3 872.8 892.2C931 897 989 864 1047.2 864.3C1105.3 864.7 1163.7 898.3 1221.8 886.7C1280 875 1338 818 1396.2 823.2C1454.3 828.3 1512.7 895.7 1570.8 902.5C1629 909.3 1687 855.7 1745.2 834.2C1803.3 812.7 1861.7 823.3 1890.8 828.7L1920 834L1920 1081L1890.8 1081C1861.7 1081 1803.3 1081 1745.2 1081C1687 1081 1629 1081 1570.8 1081C1512.7 1081 1454.3 1081 1396.2 1081C1338 1081 1280 1081 1221.8 1081C1163.7 1081 1105.3 1081 1047.2 1081C989 1081 931 1081 872.8 1081C814.7 1081 756.3 1081 698.2 1081C640 1081 582 1081 523.8 1081C465.7 1081 407.3 1081 349.2 1081C291 1081 233 1081 174.8 1081C116.7 1081 58.3 1081 29.2 1081L0 1081Z" fill="#8aa0f2"></path><path d="M0 986L29.2 985.3C58.3 984.7 116.7 983.3 174.8 986C233 988.7 291 995.3 349.2 976.5C407.3 957.7 465.7 913.3 523.8 893.3C582 873.3 640 877.7 698.2 899.7C756.3 921.7 814.7 961.3 872.8 970C931 978.7 989 956.3 1047.2 954.3C1105.3 952.3 1163.7 970.7 1221.8 975.2C1280 979.7 1338 970.3 1396.2 948.8C1454.3 927.3 1512.7 893.7 1570.8 892.7C1629 891.7 1687 923.3 1745.2 928.8C1803.3 934.3 1861.7 913.7 1890.8 903.3L1920 893L1920 1081L1890.8 1081C1861.7 1081 1803.3 1081 1745.2 1081C1687 1081 1629 1081 1570.8 1081C1512.7 1081 1454.3 1081 1396.2 1081C1338 1081 1280 1081 1221.8 1081C1163.7 1081 1105.3 1081 1047.2 1081C989 1081 931 1081 872.8 1081C814.7 1081 756.3 1081 698.2 1081C640 1081 582 1081 523.8 1081C465.7 1081 407.3 1081 349.2 1081C291 1081 233 1081 174.8 1081C116.7 1081 58.3 1081 29.2 1081L0 1081Z" fill="#7d8ded"></path><path d="M0 991L29.2 983.2C58.3 975.3 116.7 959.7 174.8 959.8C233 960 291 976 349.2 979.2C407.3 982.3 465.7 972.7 523.8 974C582 975.3 640 987.7 698.2 996.7C756.3 1005.7 814.7 1011.3 872.8 1021.2C931 1031 989 1045 1047.2 1048.8C1105.3 1052.7 1163.7 1046.3 1221.8 1033.2C1280 1020 1338 1000 1396.2 996.3C1454.3 992.7 1512.7 1005.3 1570.8 1016.5C1629 1027.7 1687 1037.3 1745.2 1041.3C1803.3 1045.3 1861.7 1043.7 1890.8 1042.8L1920 1042L1920 1081L1890.8 1081C1861.7 1081 1803.3 1081 1745.2 1081C1687 1081 1629 1081 1570.8 1081C1512.7 1081 1454.3 1081 1396.2 1081C1338 1081 1280 1081 1221.8 1081C1163.7 1081 1105.3 1081 1047.2 1081C989 1081 931 1081 872.8 1081C814.7 1081 756.3 1081 698.2 1081C640 1081 582 1081 523.8 1081C465.7 1081 407.3 1081 349.2 1081C291 1081 233 1081 174.8 1081C116.7 1081 58.3 1081 29.2 1081L0 1081Z" fill="#7579e7"></path></svg>